<?xml version="1.0" standalone="no"?>
<!DOCTYPE svg PUBLIC "-//W3C//DTD SVG 1.1//EN" "http://www.w3.org/Graphics/SVG/1.1/DTD/svg11.dtd" >
<!--
2013-9-30: Created.
-->
<svg>
<metadata>
Created by iconfont
</metadata>
<defs>

<font id="iconfont" horiz-adv-x="1024" >
  <font-face
    font-family="iconfont"
    font-weight="500"
    font-stretch="normal"
    units-per-em="1024"
    ascent="896"
    descent="-128"
  />
    <missing-glyph />
    
    <glyph glyph-name="x" unicode="x" horiz-adv-x="1001"
d="M281 543q-27 -1 -53 -1h-83q-18 0 -36.5 -6t-32.5 -18.5t-23 -32t-9 -45.5v-76h912v41q0 16 -0.5 30t-0.5 18q0 13 -5 29t-17 29.5t-31.5 22.5t-49.5 9h-133v-97h-438v97zM955 310v-52q0 -23 0.5 -52t0.5 -58t-10.5 -47.5t-26 -30t-33 -16t-31.5 -4.5q-14 -1 -29.5 -0.5
t-29.5 0.5h-32l-45 128h-439l-44 -128h-29h-34q-20 0 -45 1q-25 0 -41 9.5t-25.5 23t-13.5 29.5t-4 30v167h911zM163 247q-12 0 -21 -8.5t-9 -21.5t9 -21.5t21 -8.5q13 0 22 8.5t9 21.5t-9 21.5t-22 8.5zM316 123q-8 -26 -14 -48q-5 -19 -10.5 -37t-7.5 -25t-3 -15t1 -14.5
t9.5 -10.5t21.5 -4h37h67h81h80h64h36q23 0 34 12t2 38q-5 13 -9.5 30.5t-9.5 34.5q-5 19 -11 39h-368zM336 498v228q0 11 2.5 23t10 21.5t20.5 15.5t34 6h188q31 0 51.5 -14.5t20.5 -52.5v-227h-327z" />
    

    
    <glyph glyph-name="radiochecked" unicode="&#59184;" d="M512 812c-282.784 0-512-229.216-512-512s229.216-512 512-512 512 229.216 512 512-229.216 512-512 512zM512-84c-212.064 0-384 171.936-384 384s171.936 384 384 384c212.064 0 384-171.936 384-384s-171.936-384-384-384zM320 300c0 106.048 85.952 192 192 192s192-85.952 192-192c0-106.048-85.952-192-192-192s-192 85.952-192 192z"  horiz-adv-x="1024" />

    
    <glyph glyph-name="radio" unicode="&#59051;" d="M512 684c211.2 0 384-172.8 384-384s-172.8-384-384-384S128 88.8 128 300 300.8 684 512 684M512 812C230.4 812 0 581.6 0 300c0-281.6 230.4-512 512-512 281.6 0 512 230.4 512 512C1024 581.6 793.6 812 512 812L512 812z"  horiz-adv-x="1024" />

    
    <glyph glyph-name="tupian" unicode="&#58917;" d="M78.657454-18.01198l712.397123 0c41.36306 0 75.035974 33.658587 75.035974 75.021647l0 52.749388 83.232656 0c42.158169 0 76.488045 34.31248 76.488045 76.487022L1025.811252 704.063573c0 42.173518-34.329876 76.487022-76.488045 76.487022L223.864604 780.550595c-42.173518 0-76.478835-34.313503-76.478835-76.487022l0-51.28299L78.657454 652.780583c-41.36306 0-75.013461-33.658587-75.013461-75.021647l0-520.750291C3.643993 15.646608 37.294394-18.01198 78.657454-18.01198M791.054577 13.930523 78.657454 13.930523c-23.746844 0-43.070958 19.340487-43.070958 43.079144l0 94.049003L242.424308 357.905692l221.156936-252.733095 161.279197 96.763834 199.960171-171.347506C816.913525 20.513452 804.802696 13.930523 791.054577 13.930523M179.327248 704.063573c0 24.564465 19.97903 44.544519 44.536332 44.544519l725.458603 0c24.550139 0 44.544519-19.980054 44.544519-44.544519l0-517.817496c0-24.549116-19.99438-44.544519-44.544519-44.544519l-83.232656 0L866.089527 577.759959c0 41.36306-33.672914 75.021647-75.035974 75.021647L179.327248 652.781606 179.327248 704.063573zM78.657454 620.83808l712.397123 0c23.762193 0 43.093471-19.325138 43.093471-43.079144l0-513.137916L628.167766 241.179201 470.03012 146.302343l-226.038106 258.331603L35.586496 196.228429 35.586496 577.759959C35.586496 601.512942 54.910611 620.83808 78.657454 620.83808M642.484843 333.356576c52.849672 0 95.828532 42.985 95.828532 95.827509 0 52.842509-42.977837 95.827509-95.828532 95.827509s-95.827509-42.985-95.827509-95.827509C546.658358 376.341576 589.635171 333.356576 642.484843 333.356576M642.484843 493.068068c35.234479 0 63.886029-28.65155 63.886029-63.885006 0-35.218106-28.65155-63.885006-63.886029-63.885006-35.233456 0-63.885006 28.6669-63.885006 63.885006C578.599837 464.416518 607.251388 493.068068 642.484843 493.068068"  horiz-adv-x="1026" />

    
    <glyph glyph-name="angle-left" unicode="&#58903;" d="M665.945 8.986c12.563-12.466 32.795-12.368 45.232 0.161h-0.002c12.398 12.558 12.334 32.759-0.194 45.189l-330.469 327.456 329.063 332.024c12.433 12.559 12.34 32.76-0.189 45.225-12.565 12.435-32.796 12.339-45.232-0.19l-349.713-352.894c-0.541-0.546-0.668-1.248-1.181-1.79-0.125-0.131-0.286-0.162-0.415-0.286-6.168-6.233-9.271-14.388-9.271-22.504 0-8.213 3.165-16.46 9.463-22.693l352.91-349.699z"  horiz-adv-x="1024" />

    
    <glyph glyph-name="angle-right" unicode="&#58904;" d="M358.055 8.986c-12.563-12.466-32.795-12.368-45.232 0.161h0.002c-12.398 12.558-12.334 32.759 0.194 45.189l330.469 327.456-329.064 332.024c-12.433 12.559-12.34 32.76 0.189 45.225 12.565 12.435 32.796 12.339 45.232-0.19l349.713-352.894c0.541-0.546 0.668-1.248 1.181-1.79 0.125-0.131 0.286-0.162 0.415-0.286 6.168-6.233 9.271-14.388 9.271-22.504 0-8.213-3.165-16.46-9.463-22.693l-352.909-349.699z"  horiz-adv-x="1024" />

    
    <glyph glyph-name="angle-up" unicode="&#58905;" d="M136.985 230.055c-12.466-12.563-12.368-32.795 0.161-45.232v0.002c12.558-12.398 32.759-12.334 45.189 0.194l327.456 330.469 332.024-329.063c12.559-12.433 32.76-12.34 45.225 0.189 12.435 12.565 12.339 32.796-0.19 45.232l-352.893 349.713c-0.546 0.541-1.248 0.668-1.79 1.181-0.131 0.125-0.162 0.286-0.286 0.415-6.233 6.168-14.388 9.271-22.504 9.271-8.213 0-16.46-3.165-22.693-9.463l-349.7-352.91z"  horiz-adv-x="1024" />

    
    <glyph glyph-name="yiwen" unicode="&#59056;" d="M512 896c-282.784 0-512-229.216-512-512s229.216-512 512-512 512 229.216 512 512-229.216 512-512 512zM512-89.504c-261.504 0-473.504 212-473.504 473.504s212 473.504 473.504 473.504 473.504-212 473.504-473.504-212-473.504-473.504-473.504zM672.576 520.608c0-21.408-2.976-40.384-8.896-57.024-5.952-16.608-14.176-31.744-24.736-45.344-10.56-13.6-28.128-30.176-52.672-49.696-20.608-16.352-34.848-29.696-42.752-40-7.904-10.272-14.112-21.632-18.592-34.048-4.48-12.416-6.848-26.272-7.136-41.568h-49.504c0.512 27.456 6.464 52.064 17.824 73.856 11.328 21.792 32.192 44.672 62.56 68.704 22.432 17.952 37.888 32.128 46.336 42.56 8.448 10.432 15.040 21.92 19.808 34.464 4.768 12.544 7.136 27.264 7.136 44.16 0 34.592-9.376 61.12-28.128 79.584-18.752 18.464-44.736 27.712-77.984 27.712-32.192 0-58.208-9.792-78.016-29.312-19.808-19.552-31.008-46.72-33.664-81.568l-52.672 3.168c4.48 45.92 21.376 82.496 50.688 109.664 29.312 27.2 67.456 40.8 114.432 40.8 49.632 0 88.064-12.832 115.232-38.432 27.136-25.6 40.736-61.504 40.736-107.68zM466.272 101.28v64.928h57.024v-64.928h-57.024z"  horiz-adv-x="1024" />

    
    <glyph glyph-name="zhongbo-m" unicode="&#58887;" d="M874.144 633.44c-138.912 183.456-402.88 220.96-588.384 83.648-60.16-44.544-106.784-104.352-135.584-172.224l-21.696 73.92c-4.992 16.96-22.752 26.752-39.712 21.696-16.96-4.992-26.688-22.784-21.696-39.744l47.456-161.76c4.096-13.92 16.832-22.976 30.688-22.976 2.976 0 22.72 5.76 25.824 6.912l161.248 59.264c16.576 6.080 25.088 24.48 18.976 41.088-6.080 16.576-24.384 25.056-41.088 18.976l-107.968-39.68c23.424 64.576 65.568 121.632 121.6 163.104 157.376 116.576 381.376 84.768 499.296-70.848 56.832-75.008 80.8-167.456 67.488-260.256-13.376-93.28-62.784-175.712-139.072-232.192-157.536-116.512-381.568-84.736-499.392 70.72-10.688 14.112-30.72 16.864-44.832 6.176-14.080-10.656-16.832-30.752-6.176-44.8 82.464-108.832 208.992-166.24 337.024-166.24 87.68 0 176.032 26.912 251.456 82.72 90.144 66.72 148.512 164.224 164.352 274.528 15.84 109.824-12.512 219.2-79.808 307.968z"  horiz-adv-x="1024" />

    
    <glyph glyph-name="icon165" unicode="&#59043;" d="M512.240477 842.639698c-253.210979 0-458.495412-205.215872-458.495412-458.430944 0-253.208932 205.285456-458.459596 458.495412-458.459596 253.179256 0 458.429921 205.250664 458.429921 458.459596C970.670397 637.423827 765.419733 842.639698 512.240477 842.639698L512.240477 842.639698zM741.528604 333.612403 498.099409 333.612403c-5.148253 0-10.090822 1.025353-14.623046 2.948145-13.45443 5.698792-22.935362 19.056008-22.935362 34.604122L460.541001 614.594889c0 20.764929 16.821107 37.58706 37.559431 37.58706 20.806885 0 37.627992-16.822131 37.627992-37.58706l0-205.803249 205.801203 0c20.773116 0 37.58706-16.821107 37.58706-37.5932C779.115664 350.43351 762.29558 333.612403 741.528604 333.612403L741.528604 333.612403zM741.528604 333.612403"  horiz-adv-x="1024" />

    
    <glyph glyph-name="yonghu" unicode="&#58882;" d="M640.846 259.286c79.57 46.115 133.096 132.191 133.096 230.776 0 147.21-119.337 266.547-266.546 266.547-147.21 0-266.547-119.337-266.547-266.547 0-100.186 55.284-187.447 137-232.983-134.462-53.449-229.523-184.75-229.523-338.256 0-19.99 16.205-36.195 36.195-36.195s36.195 16.205 36.195 36.195h0.005c0.195 160.943 130.721 291.356 291.711 291.356 159.19 0 288.575-127.519 291.635-285.977a36.558 36.558 0 0 1-0.4-5.379c0-19.99 16.205-36.195 36.195-36.195s36.195 16.205 36.195 36.195c0 155.662-97.748 288.492-235.21 340.463z m-133.45 35.653c-107.762 0-195.12 87.36-195.12 195.123 0 107.762 87.358 195.12 195.12 195.12s195.119-87.358 195.119-195.12-87.357-195.123-195.119-195.123z"  horiz-adv-x="1024" />

    
    <glyph glyph-name="bofang" unicode="&#58927;" d="M221.79-118.944c-36.776 0-68.472 13.843-91.663 40.034-23.131 26.122-35.869 63.466-35.869 105.156v715.33c0 41.692 12.739 79.041 35.87 105.169 23.193 26.198 54.889 40.044 91.663 40.044 27.752 0 56.166-8.16 84.451-24.253l570.273-358.823c50.087-28.728 78.901-72.396 79.053-119.807 0-48.285-28.559-91.194-80.419-120.835l-0.164-0.093-566.355-356.251c-30.366-17.273-58.772-25.671-86.842-25.671zM221.79 832.856c-44.709 0-73.598-35.829-73.598-91.28v-715.331c0-55.437 28.889-91.256 73.598-91.256 18.275 0 38.138 6.032 59.035 17.929l0.166 0.095 566.31 356.242c35.545 20.448 54.333 46.233 54.333 74.564-0.105 37.917-32.838 62.24-52.339 73.363l-1.198 0.713-569.695 358.475c-18.994 10.786-38.568 16.485-56.611 16.485z"  horiz-adv-x="1024" />

    
    <glyph glyph-name="bangzhu" unicode="&#59129;" d="M512 213.333c-17.067 0-32-14.933-32-32s14.933-32 32-32 32 14.934 32 32-14.933 32-32 32z m0 597.334c-234.667 0-426.667-192-426.667-426.667s192-426.667 426.667-426.667 426.667 192 426.667 426.667S746.667 810.667 512 810.667zM512 0c-211.2 0-384 172.8-384 384s172.8 384 384 384 384-172.8 384-384-172.8-384-384-384z m25.6 573.867c-32 6.4-66.133 0-91.733-21.334-25.6-19.2-40.534-51.2-40.534-83.2 0-12.8 8.534-21.333 21.334-21.333S448 456.533 448 469.333c0 19.2 8.533 38.4 23.467 49.067 14.933 12.8 34.133 17.067 55.466 12.8 23.467-4.267 42.667-23.467 46.934-46.933 6.4-27.734-4.267-55.467-29.867-70.4-34.133-21.334-53.333-55.467-53.333-91.734v-44.8c0-12.8 8.533-21.333 21.333-21.333s21.333 8.533 21.333 21.333v44.8c0 23.467 12.8 42.667 34.134 55.467C608 401.067 627.2 448 616.533 494.933 605.867 533.333 576 563.2 537.6 573.867z"  horiz-adv-x="1024" />

    
    <glyph glyph-name="xiaoxi" unicode="&#58883;" d="M696.203 85.044c-3.123 0.018-6.087-0.496-8.684-1.561h-0.085c-2.077-0.859-4.060-2.245-5.779-4.133l-127.562-140.087c-1.41-1.542-2.898-3.038-4.393-4.375-11.837-10.583-27.236-15.951-42.466-15.969-15.303-0.018-30.721 5.301-42.575 16.073l-0.17 0.176c-1.204 1.113-2.578 2.516-4.15 4.272l-123.447 137.819c-1.458 1.628-3.328 2.832-5.423 3.618-3.019 1.149-6.486 1.748-10.069 1.906h-0.085c-33.481 1.609-57.479 1.712-83.161 1.797h-0.085c-32.827 0.121-68.437 0.278-125.899 3.244v-0.036c-31.302 0-59.828 12.883-80.497 33.535l-0.054-0.049c-20.646 20.652-33.481 49.175-33.481 80.545v507.495c0 31.283 12.847 59.808 33.481 80.462l0.054 0.036 0.036 0.049c20.652 20.634 49.175 33.481 80.462 33.481h795.779c31.369 0 59.893-12.829 80.545-33.481l-0.049-0.049c20.646-20.671 33.53-49.196 33.53-80.497v-507.495c0-31.369-12.829-59.893-33.481-80.545s-49.175-33.486-80.545-33.486v0.071c-50.932-0.999-94.651-1.7-129.281-2.16-42.433-0.569-70.958-0.756-82.467-0.654v0zM771.466 480.462c-24.065 0-43.568-19.503-43.568-43.568s19.502-43.568 43.568-43.568 43.568 19.503 43.568 43.568-19.502 43.568-43.568 43.568v0zM510.060 480.462c-24.065 0-43.568-19.503-43.568-43.568s19.503-43.568 43.568-43.568 43.568 19.503 43.568 43.568-19.503 43.568-43.568 43.568v0zM248.656 480.462c-24.065 0-43.568-19.503-43.568-43.568s19.503-43.568 43.568-43.568 43.568 19.503 43.568 43.568-19.503 43.568-43.568 43.568v0zM670.867 123.619l-0.018 0.036c7.946 3.292 16.671 4.852 25.698 4.781 11.212-0.085 39.417 0.102 81.611 0.653 34.098 0.448 77.721 1.167 129.366 2.179l0.43 0.085c19.344 0 36.96 7.946 49.74 20.724 12.78 12.773 20.719 30.394 20.719 49.74v507.497c0 19.399-7.908 37.033-20.634 49.74h-0.085c-12.78 12.78-30.394 20.719-49.74 20.719h-795.778c-19.399 0-37.033-7.903-49.746-20.634l-0.085-0.085c-12.726-12.707-20.634-30.34-20.634-49.74v-507.495c0-19.344 7.946-36.966 20.719-49.74v-0.091c12.713-12.726 30.346-20.634 49.746-20.634l1.095-0.085c58.338-3.038 92.986-3.189 124.889-3.292h0.091c26.758-0.102 51.778-0.206 85.126-1.804 8.162-0.394 16.175-1.779 23.569-4.61 8.35-3.189 15.998-8.133 22.467-15.388l-0.049-0.036 123.327-137.782 1.234-1.187c3.564-3.244 8.435-4.852 13.312-4.852 4.956 0 9.911 1.683 13.549 4.918l1.269 1.252-0.054 0.036 127.477 140.087c6.105 6.686 13.33 11.659 21.389 15.005z"  horiz-adv-x="1024" />

    
    <glyph glyph-name="icon" unicode="&#58880;" d="M883.366518 476.945879L604.084767 476.945879 604.084767 756.22763c0 40.684608-33.292244 73.977875-73.977875 73.977875l-36.972053 0c-40.689724 0-73.976852-33.293267-73.976852-73.977875l0-279.282774L139.875213 476.944855c-40.683585 0-73.976852-33.290197-73.976852-73.981968l0-36.966936c0-40.691771 33.293267-73.977875 73.976852-73.977875l279.281751 0 0-279.280728c0-40.685631 33.287127-73.976852 73.976852-73.976852l36.972053 0c40.685631 0 73.977875 33.291221 73.977875 73.976852l0 279.280728 279.281751 0c40.684608 0 73.977875 33.286104 73.977875 73.977875l0 36.966936C957.344393 443.655681 924.051125 476.945879 883.366518 476.945879z"  horiz-adv-x="1024" />

    
    <glyph glyph-name="fanzhuanjingtou1" unicode="&#58881;" d="M791.616 639.6586669999999h104.448a85.674667 85.674667 0 0 0 85.568-85.269334l1.706667-469.12a84.650667 84.650667 0 0 0-85.077334-85.056l-767.936 1.813334a85.973333 85.973333 0 0 0-85.674666 85.504l-1.685334 466.816a84.928 84.928 0 0 0 84.992 85.312h130.410667c11.861333 0 25.792 8.618667 31.125333 19.221333l34.858667 69.376c10.496 20.906667 38.144 38.08 61.674667 38.186667l276.928 1.344c23.637333 0.128 51.2-16.853333 61.824-37.952l35.904-71.253334c5.290667-10.496 19.114667-18.922667 30.933333-18.922666z m0-42.666667c-27.882667 0-56.469333 17.472-69.034667 42.410667l-35.904 71.253333c-3.349333 6.656-16.128 14.506667-23.509333 14.464l-276.906667-1.344c-7.466667-0.021333-20.48-8.106667-23.786666-14.677333l-34.858667-69.376c-12.586667-25.024-41.237333-42.730667-69.248-42.730667H127.957333c-23.466667 0-42.410667-18.986667-42.325333-42.474667l1.706667-466.837333a43.306667 43.306667 0 0 1 43.093333-42.986667l767.914667-1.813333a41.984 41.984 0 0 1 42.304 42.24l-1.685334 469.12a43.008 43.008 0 0 1-42.88 42.752h-104.469333z m-341.205333-52.416a192.085333 192.085333 0 0 1-53.205334-335.829333 21.333333 21.333333 0 0 0-25.536-34.197334A234.304 234.304 0 0 0 277.333333 362.66666699999996c0 113.557333 80.682667 208.298667 187.84 229.973333l-32.256 32.277333a21.333333 21.333333 0 0 0 30.165334 30.165334L542.165333 576l-79.082666-79.082667a21.333333 21.333333 0 0 0-30.165334 30.165334l17.493334 17.493333z m70.634666-373.696a192 192 0 0 1 68.778667 367.36 21.333333 21.333333 0 1 0 17.301333 38.997333A234.666667 234.666667 0 0 0 746.666667 362.66666699999996c0-126.698667-100.416-229.952-225.984-234.517334l27.733333-27.733333a21.333333 21.333333 0 0 0-30.165333-30.165333L439.168 149.33333300000004l79.082667 79.082667a21.333333 21.333333 0 0 0 30.165333-30.165333l-27.370667-27.370667z"  horiz-adv-x="1024" />

    
    <glyph glyph-name="tingzhiluzhi" unicode="&#58920;" d="M512 846.848c251.904 0 458.752-204.8 458.752-458.752 0-251.904-204.8-458.752-458.752-458.752-251.904 0-458.752 204.8-458.752 458.752C53.248 640 260.096 846.848 512 846.848m0 36.864C237.568 883.712 16.384 662.528 16.384 388.096 16.384 113.664 237.568-107.52 512-107.52c274.432 0 495.616 221.184 495.616 495.616C1007.616 662.528 786.432 883.712 512 883.712zM618.496 199.68H405.504c-45.056 0-81.92 36.864-81.92 81.92V494.592c0 45.056 36.864 81.92 81.92 81.92h212.992c45.056 0 81.92-36.864 81.92-81.92V281.6c0-45.056-36.864-81.92-81.92-81.92z"  horiz-adv-x="1024" />

    
    <glyph glyph-name="kaishiluzhi" unicode="&#58921;" d="M512 844.8c251.904 0 458.752-204.8 458.752-458.752 0-251.904-204.8-458.752-458.752-458.752-251.904 0-458.752 204.8-458.752 458.752C53.248 637.952 260.096 844.8 512 844.8m0 36.864C237.568 881.664 16.384 660.48 16.384 386.048 16.384 111.616 237.568-109.568 512-109.568c274.432 0 495.616 221.184 495.616 495.616C1007.616 660.48 786.432 881.664 512 881.664zM720.896 414.72L421.888 588.8c-24.576 14.336-53.248-4.096-53.248-30.72v-346.112c0-26.624 28.672-45.056 53.248-30.72l299.008 172.032c22.528 14.336 22.528 47.104 0 61.44z"  horiz-adv-x="1024" />

    
    <glyph glyph-name="location" unicode="&#58897;" d="M512.103132 575.879021a106.221743 106.221743 0 1 0-75.507022-31.354611A106.221743 106.221743 0 0 0 512.103132 575.879021m0 63.989002a170.850635 170.850635 0 1 1 120.939214-49.911422A169.570855 169.570855 0 0 1 512.103132 639.868023zM805.172761 771.685367a407.609942 407.609942 0 0 1-586.139257 0 431.285873 431.285873 0 0 1 0-599.576948L512.103132-128l293.069629 300.108419a431.285873 431.285873 0 0 1 0 599.576948z m-44.152411-557.344207l-248.917218-255.956007-248.917217 255.956007a365.377201 365.377201 0 0 0 0 508.712565 346.82039 346.82039 0 0 0 497.834435 0 365.377201 365.377201 0 0 0 0-508.712565z"  horiz-adv-x="1024" />

    
    <glyph glyph-name="fuxuankuangweixuanzhong" unicode="&#58889;" d="M832 768H192c-35.3 0-64-28.7-64-64v-640c0-35.3 28.7-64 64-64h640c35.3 0 64 28.7 64 64V704c0 35.3-28.7 64-64 64z m0-672c0-17.7-14.3-32-32-32H224c-17.7 0-32 14.3-32 32V672c0 17.7 14.3 32 32 32h576c17.7 0 32-14.3 32-32v-576z"  horiz-adv-x="1024" />

    
    <glyph glyph-name="fuxuankuangxuanzhong" unicode="&#58896;" d="M832 768H192c-35.3 0-64-28.7-64-64v-640c0-35.3 28.7-64 64-64h640c35.3 0 64 28.7 64 64v640c0 35.3-28.7 64-64 64z m-73-287L477.6 199.60000000000002c-14.2-14.2-33.4-20.3-51.9-18.4-15.6 0.6-31 6.8-42.9 18.7L261.2 321.5c-25 25-25 65.5 0 90.5s65.5 25 90.5 0l78.7-78.7 238.1 238.2c25 25 65.5 25 90.5 0s25-65.5 0-90.5z"  horiz-adv-x="1024" />

    
    <glyph glyph-name="weirenzheng" unicode="&#59019;" d="M931.908267 680.533333c-127.266133 51.968-239.598933 114.688-332.612267 185.856a143.616 143.616 0 0 1-174.574933 0c-93.013333-71.150933-205.346133-133.888-332.629334-185.856a34.133333 34.133333 0 0 1-21.384533-31.5392v-280.439466c0-242.722133 376.644267-496.520533 441.2928-496.520534 64.648533 0 441.2928 253.815467 441.2928 496.520534V648.994133a34.133333 34.133333 0 0 1-21.384533 31.5392zM550.485333 176.008533a34.133333 34.133333 0 0 0-68.266666 0v34.133334a34.133333 34.133333 0 0 0 68.266666 0v-34.133334z m0 160a34.133333 34.133333 0 0 0-68.266666 0v238.933334a34.133333 34.133333 0 0 0 68.266666 0v-238.933334z"  horiz-adv-x="1024" />

    
    <glyph glyph-name="renzheng" unicode="&#58898;" d="M520.220055-106.958904a490.958904 490.958904 0 1 0 492.16526 490.958904 491.562082 491.562082 0 0 0-492.16526-490.958904zM519.013699 853.917808a469.917808 469.917808 0 1 1 469.917808-469.917808A469.917808 469.917808 0 0 1 519.013699 853.917808zM942.009863 414.109808a10.520548 10.520548 0 1 0 9.566685 11.39726 10.520548 10.520548 0 0 0-9.566685-11.39726z m-4.208219 36.758795a10.520548 10.520548 0 1 0 8.535671 12.189808 10.520548 10.520548 0 0 0-8.542685-12.189808z m-7.406466 36.232767a10.520548 10.520548 0 1 0 7.441534 12.884164 10.520548 10.520548 0 0 0-7.441534-12.884164z m-10.520548 35.475288a10.520548 10.520548 0 1 0 6.312329 13.487342 10.520548 10.520548 0 0 0-6.326356-13.466301z m-13.585534 34.416219a10.520548 10.520548 0 1 0 5.091945 13.978301 10.520548 10.520548 0 0 0-5.105973-13.95726z m-16.531288 33.104657a10.520548 10.520548 0 1 0 3.850521 14.371069 10.520548 10.520548 0 0 0-3.864548-14.350028z m-34.009424 34.121644a10.520548 10.520548 0 1 0 14.65863-2.581041 10.520548 10.520548 0 0 0-14.672658 2.602082z m-1.697316-516.762301a10.520548 10.520548 0 1 0-1.297534 14.826959 10.520548 10.520548 0 0 0 1.283507-14.805918z m-20.501041 545.202849a10.520548 10.520548 0 1 0 14.826959-1.297534 10.520548 10.520548 0 0 0-14.840986 1.318575z m-4.909589-573.355836a10.520548 10.520548 0 1 0 0 14.876055 10.520548 10.520548 0 0 0 0-14.855013z m-19.694465 599.755398a10.520548 10.520548 0 1 0 14.876054 0 10.520548 10.520548 0 0 0-14.876054 0.021041z m-22.885699-624.289315a10.520548 10.520548 0 1 0 14.826959-1.297535 10.520548 10.520548 0 0 0-14.826959 1.318576z m-3.920658 648.444493a10.520548 10.520548 0 1 0 14.826959 1.297534 10.520548 10.520548 0 0 0-14.826959-1.276493z m-25.810411-670.509589a10.520548 10.520548 0 1 0 14.658631-2.588055 10.520548 10.520548 0 0 0-14.658631 2.644164z m-2.987835 692.259068a10.520548 10.520548 0 1 0 14.651616 2.581041 10.520548 10.520548 0 0 0-14.651616-2.581041z m-14.174685-715.39726a10.520548 10.520548 0 1 0 3.85052 14.371068 10.520548 10.520548 0 0 0-3.85052-14.385095z m-16.419069 734.537644a10.520548 10.520548 0 1 0 14.371069 3.85052 10.520548 10.520548 0 0 0-14.371069-3.85052z m-17.071342-752.324384a10.520548 10.520548 0 1 0 5.084931 13.985315 10.520548 10.520548 0 0 0-5.084931-13.985315zM690.610849 760.495342a10.520548 10.520548 0 1 0 13.978302 5.091946 10.520548 10.520548 0 0 0-13.978302-5.091946z m-19.855781-783.500274a10.520548 10.520548 0 1 0 6.312329 13.487343 10.520548 10.520548 0 0 0-6.312329-13.487343zM657.183562 774.031781a10.520548 10.520548 0 1 0 13.480328 6.312329 10.520548 10.520548 0 0 0-13.480328-6.312329zM634.69063-34.717808a10.520548 10.520548 0 1 0 7.441534 12.884164 10.520548 10.520548 0 0 0-7.441534-12.884164zM622.662137 784.594411a10.520548 10.520548 0 1 0 12.884164 7.441534 10.520548 10.520548 0 0 0-12.884164-7.441534z m-24.926685-827.777753a10.520548 10.520548 0 1 0 8.535671 12.189808 10.520548 10.520548 0 0 0-8.535671-12.189808z m-10.359233 835.331506a10.520548 10.520548 0 1 0 12.189808 8.535672 10.520548 10.520548 0 0 0-12.189808-8.57074zM560.18411-48.429589a10.520548 10.520548 0 1 0 9.566685 11.39726 10.520548 10.520548 0 0 0-9.566685-11.39726zM551.564274 796.531726a10.520548 10.520548 0 1 0 11.39726 9.566685 10.520548 10.520548 0 0 0-11.39726-9.566685z m-29.247123-846.911123a10.520548 10.520548 0 1 0 10.520548 10.520548 10.520548 10.520548 0 0 0-10.520548-10.520548zM515.506849 797.808219a10.520548 10.520548 0 1 0 10.520548 10.520548 10.520548 10.520548 0 0 0-10.520548-10.520548z m-31.084712-846.826959a10.520548 10.520548 0 1 0 11.39726 9.559672 10.520548 10.520548 0 0 0-11.39726-9.559672z m-4.944658 844.954302a10.520548 10.520548 0 1 0 9.566685 11.39726 10.520548 10.520548 0 0 0-9.566685-11.39726zM446.772603-44.368658a10.520548 10.520548 0 1 0 12.189808 8.535672 10.520548 10.520548 0 0 0-12.189808-8.535672zM443.742685 790.934795a10.520548 10.520548 0 1 0 8.535671 12.189808 10.520548 10.520548 0 0 0-8.535671-12.189808z m-34.030466-827.384987a10.520548 10.520548 0 1 0 12.884165 7.441534 10.520548 10.520548 0 0 0-12.884165-7.441534z m-1.129205 819.284165a10.520548 10.520548 0 1 0 7.441534 12.870137 10.520548 10.520548 0 0 0-7.441534-12.870137z m-35.117589-808.167452a10.520548 10.520548 0 1 0 13.487342 6.312328 10.520548 10.520548 0 0 0-13.487342-6.312328z m0.799561 797.036712a10.520548 10.520548 0 1 0 6.312329 13.487342 10.520548 10.520548 0 0 0-6.312329-13.487342z m-35.938191-782.798904a10.520548 10.520548 0 1 0 13.978301 5.084931 10.520548 10.520548 0 0 0-13.985315-5.084931z m2.721315 768.70137a10.520548 10.520548 0 1 0 5.091945 13.978301 10.520548 10.520548 0 0 0-5.098959-13.964274z m-36.471233-751.475726a10.520548 10.520548 0 1 0 14.371068 3.857534 10.520548 10.520548 0 0 0-14.392109-3.843507z m4.600986 734.565698a10.520548 10.520548 0 1 0 3.850521 14.371069 10.520548 10.520548 0 0 0-3.850521-14.371069z m-36.758795-714.42937a10.520548 10.520548 0 1 0 14.651617 2.588055 10.520548 10.520548 0 0 0-14.651617-2.588055z m-8.163945 697.379069a10.520548 10.520548 0 1 0 14.651617-2.581041 10.520548 10.520548 0 0 0-14.651617 2.581041z m-22.100164-674.528438a10.520548 10.520548 0 1 0 14.819945 1.29052 10.520548 10.520548 0 0 0-14.819945-1.29052zM235.660274 700.156493a10.520548 10.520548 0 1 0 14.819945-1.297534 10.520548 10.520548 0 0 0-14.819945 1.297534z m-21.644274-625.621918a10.520548 10.520548 0 1 0 14.876055 0 10.520548 10.520548 0 0 0-14.890082-0.021041z m-4.832438 599.734357a10.520548 10.520548 0 1 0 14.876054 0 10.520548 10.520548 0 0 0-14.876054 0z m-6.20011-573.299727a10.520548 10.520548 0 1 0 1.297534 14.819946 10.520548 10.520548 0 0 0-1.29052-14.819946zM185.084493 646.172055a10.520548 10.520548 0 1 0 14.819945 1.297534 10.520548 10.520548 0 0 0-14.819945-1.297534z m-21.560109-30.088767a10.520548 10.520548 0 1 0 14.651616 2.581041 10.520548 10.520548 0 0 0-14.644603-2.588055z m-4.481754-27.984658a10.520548 10.520548 0 1 0-3.85052 14.371069 10.520548 10.520548 0 0 0 3.85052-14.371069z m-16.398027-32.143781a10.520548 10.520548 0 1 0-5.091945 13.978302 10.520548 10.520548 0 0 0 5.098958-13.999343z m-13.529425-33.448328a10.520548 10.520548 0 1 0-6.312329 13.487342 10.520548 10.520548 0 0 0 6.312329-13.508384zM118.531507 487.985096a10.520548 10.520548 0 1 0-7.441534 12.884164 10.520548 10.520548 0 0 0 7.441534-12.884164z m-7.518685-35.285918a10.520548 10.520548 0 1 0-8.535671 12.189808 10.520548 10.520548 0 0 0 8.556712-12.189808z m-4.404603-35.811945a10.520548 10.520548 0 1 0-9.566685 11.39726 10.520548 10.520548 0 0 0 9.566685-11.39726z m-11.797041-25.536877a10.520548 10.520548 0 1 0-10.520548-10.520548 10.520548 10.520548 0 0 0 10.527562 10.520548z m0.995945-36.990246a10.520548 10.520548 0 1 0-9.53863-11.397261 10.520548 10.520548 0 0 0 9.545644 11.397261z m4.208219-36.758795a10.520548 10.520548 0 1 0-8.521643-12.15474 10.520548 10.520548 0 0 0 8.535671 12.15474z m7.399453-36.253808a10.520548 10.520548 0 1 0-7.441535-12.884165 10.520548 10.520548 0 0 0 7.455562 12.884165z m10.520547-35.475288a10.520548 10.520548 0 1 0-6.312328-13.487342 10.520548 10.520548 0 0 0 6.340383 13.487342z m13.61359-34.409205a10.520548 10.520548 0 1 0-5.091946-13.978302 10.520548 10.520548 0 0 0 5.091946 13.978302z m16.531287-33.104658a10.520548 10.520548 0 1 0-3.85052-14.371068 10.520548 10.520548 0 0 0 3.85052 14.364054z m34.009425-34.121644a10.520548 10.520548 0 1 0-14.651617 2.588055 10.520548 10.520548 0 0 0 14.651617-2.595068z m692.209972 8.163946a10.520548 10.520548 0 1 0-14.651616-2.581042 10.520548 10.520548 0 0 0 14.644603 2.574028z m4.488768 28.005698a10.520548 10.520548 0 1 0 3.85052-14.371068 10.520548 10.520548 0 0 0-3.822466 14.364054z m16.391013 32.136767a10.520548 10.520548 0 1 0 5.091945-13.978301 10.520548 10.520548 0 0 0-5.098958 13.971288z m13.536439 33.448329a10.520548 10.520548 0 1 0 6.312328-13.480329 10.520548 10.520548 0 0 0-6.319342 13.473315z m10.56263 34.500384a10.520548 10.520548 0 1 0 7.441534-12.884165 10.520548 10.520548 0 0 0-7.448548 12.877151z m7.518685 35.285917a10.520548 10.520548 0 1 0 8.535671-12.189808 10.520548 10.520548 0 0 0-8.542685 12.182795z m16.215671 61.348822a10.520548 10.520548 0 1 0 10.520548 10.520548 10.520548 10.520548 0 0 0-10.527562-10.527561z m-11.797041-25.536876a10.520548 10.520548 0 1 0 9.559671-11.397261 10.520548 10.520548 0 0 0-9.566685 11.390247zM778.008548 368.373479c0.308603 5.17611 0.512 10.380274 0.512 15.626521a259.45074 259.45074 0 0 1-407.839562 212.879781l-13.529424 7.588822A273.534247 273.534247 0 0 0 792.547945 384c0-7.820274-0.406795-15.535342-1.052055-23.187288z m-517.610959 36.022357C259.857534 397.662685 259.506849 390.873425 259.506849 384a259.436712 259.436712 0 0 1 410.834411-210.747616l13.431233-7.574795A273.534247 273.534247 0 0 0 245.479452 384a276.676384 276.676384 0 0 0 1.40274 27.998685zM410.56789 491.695342c16.734685-9.657863 33.041534-5.660055 40.363836 7.013699 6.880438 11.923288 2.805479 21.56011-4.138082 30.972493l-8.640877 11.551562c-4.720219 6.221151-10.015562 13.220822-5.526794 20.984986 4.166137 7.217096 12.722849 8.416438 21.805589 3.163178a29.983562 29.983562 0 0 0 13.908164-18.088328l9.117808 3.359561a37.958137 37.958137 0 0 1-17.877918 23.594082c-14.546411 8.416438-30.439452 5.610959-37.579397-6.740164-6.754192-11.698849-1.178301-22.506959 4.425644-29.969534l8.689973-11.726904c5.610959-7.715068 9.868274-13.718795 5.134027-21.917809-4.544877-7.876384-13.922192-9.461479-24.421699-3.401643a36.366027 36.366027 0 0 0-16.454137 22.773479l-9.99452-3.415671a44.235397 44.235397 0 0 1 21.188383-28.152987zM469.917808 457.419397a29.415452 29.415452 0 0 1 25.873534-0.64526l0.329644-0.18937-4.586959-9.742027 8.311233-4.79737 34.282959 59.384986-9.952438 5.744219-24.30948-42.082191c-9.819178-3.822466-15.759781-4.313425-21.882739-0.778521-7.876384 4.544877-8.416438 11.144767-2.062028 22.191342l21.041096 36.415124-9.952438 5.744219-21.742466-37.62148c-8.675945-15.114521-7.799233-26.427616 4.650082-33.623671z m69.316384-40.020164a30.58674 30.58674 0 0 1 22.90674-1.998904l0.217424-0.126247-3.036931-7.567781 8.086794-4.671123 50.260165 87.054027-9.952439 5.74422-13.199781-22.857644-5.365479-10.590685a27.900493 27.900493 0 0 1-12.687781 16.657534c-13.564493 7.827288-32.648767 2.805479-43.758466-16.440109-11.446356-19.792658-8.32526-36.618521 6.550795-45.203288z m7.013698 7.048767c-10.520548 6.059836-11.481425 18.004164-3.20526 32.326137 7.827288 13.564493 20.676384 18.389918 30.306192 12.835068a24.071014 24.071014 0 0 0 10.836164-14.567452l-17.99715-31.168876a23.566027 23.566027 0 0 0-19.946959 0.575123z m54.236932-42.397808a36.737753 36.737753 0 0 1 24.611068-2.80548l0.329644-0.18937-3.226301-7.616876 8.192-4.762302 21.090192 36.527343c8.458521 14.651616 7.953534 27.921534-6.480658 36.260822a51.57874 51.57874 0 0 1-27.886466 5.751233l-0.042082-9.159891a37.782795 37.782795 0 0 0 21.489973-3.948712c9.735014-5.610959 8.016658-14.399123 3.598027-22.058082-26.904548 11.740932-41.892822 11.790027-49.348383-1.115178a18.593315 18.593315 0 0 1 7.665972-26.883507z m7.455562 6.312329a10.520548 10.520548 0 0 0-5.007781 15.577424c4.41863 7.651945 14.027397 8.661918 35.447233-0.483945l-9.59474-16.622466a28.054795 28.054795 0 0 0-20.851726 1.557041z m41.380821-32.627726l9.952439-5.74422 24.849534 43.127233c9.489534 2.538959 15.430137 3.20526 21.532055-0.329644 7.876384-4.544877 8.549699-11.221918 2.104109-22.359671l-20.963945-36.309918 9.952439-5.744219 21.742465 37.62148c8.774137 15.198685 7.764164 26.581918-4.706191 33.777972a32.192877 32.192877 0 0 1-25.431672 1.40274l7.406466 12.056548 13.767891 23.846575-9.952439 5.744219zM198.592877 468.304658a43.162301 43.162301 0 0 1 12.196822-4.124055l2.328548 8.570739a24.302466 24.302466 0 0 0-7.665973 2.384658c-6.887452 3.976767-6.78926 9.461479-2.56 16.790795l19.13337 33.139726 16.075397-9.279124 4.671123 8.093808-16.075397 9.279124 9.59474 16.622466-8.311233 4.797369-10.801096-15.928109-9.608767 4.818411-4.355507-7.553754 8.858301-5.112986-19.007123-32.922301c-6.880438-11.916274-7.160986-22.254466 5.526795-29.576767z m46.465753-26.827398a40.812712 40.812712 0 0 1 23.222356-5.239233l0.182356 8.647891a29.56274 29.56274 0 0 0-17.590356 3.885589c-11.264 6.501699-14.357041 19.07726-7.715068 32.143781l40.027178-23.145206a44.887671 44.887671 0 0 1 3.745315 5.484713c9.819178 16.95211 7.567781 32.810082-7.518685 41.528109-13.781918 7.953534-33.742904 3.436712-44.887671-15.808877-11.271014-19.596274-5.218192-38.407014 10.534575-47.496767z m2.10411 46.606028c7.974575 11.004493 19.357808 13.494356 27.774246 8.633863 9.293151-5.365479 11.039562-14.974247 4.096-27.009754z m35.320986-66.328548l9.987507-5.744219 22.037041 38.168547c9.819178 7.897425 17.955068 7.862356 22.878685 5.021809a16.236712 16.236712 0 0 0 5.225205-4.327452l6.887452 7.68a14.616548 14.616548 0 0 1-5.610958 4.972712 23.678247 23.678247 0 0 1-23.979836-2.637151l-0.329644 0.18937 5.379507 11.334137-8.199014 4.734247z m57.126575-34.879124c14.027397-8.079781 26.266301-4.516822 31.821151 5.105973 6.501699 11.264-0.988932 20.255562-7.715068 28.524712-5.218192 6.368438-10.471452 12.168767-7.189042 17.856877 2.651178 4.593973 8.318247 6.571836 15.752768 2.279452A25.803397 25.803397 0 0 0 382.947945 427.484932l8.535671 3.675178a35.524384 35.524384 0 0 1-14.65863 17.365917c-12.905205 7.448548-24.744329 4.369534-30.158904-5.035835-5.807342-10.064658 1.262466-19.540164 7.806247-27.402521 5.105973-6.312329 10.520548-13.080548 7.055781-19.091287-2.966795-5.141041-9.194959-7.083836-17.071343-2.538959a31.09874 31.09874 0 0 0-13.564493 17.16252l-8.711014-3.724274a41.380822 41.380822 0 0 1 17.450082-21.020055z m59.616439-34.402191a40.812712 40.812712 0 0 1 23.222356-5.239233l0.182356 8.64789a29.56274 29.56274 0 0 0-17.590356 3.885589c-11.264 6.501699-14.357041 19.07726-7.715069 32.143781l40.027178-23.145205a44.824548 44.824548 0 0 1 3.724274 5.435616c9.819178 16.95211 7.567781 32.810082-7.518684 41.52811-13.781918 7.953534-33.742904 3.436712-44.887672-15.808877-11.256986-19.547178-5.204164-38.364932 10.548603-47.48274z m2.104109 46.606027c7.960548 11.004493 19.308712 13.494356 27.732165 8.633863 9.293151-5.365479 11.039562-14.974247 4.096-27.009753z m35.320987-66.328548l9.952438-5.744219 22.037041 38.168548c9.819178 7.897425 17.955068 7.862356 22.878685 5.021808a16.229699 16.229699 0 0 0 5.225205-4.327452l6.908494 7.672986a14.616548 14.616548 0 0 1-5.610959 4.972713 23.678247 23.678247 0 0 1-23.979836-2.637151l-0.329644 0.18937 5.379507 11.334137-8.199014 4.734246z m60.317808-36.709699a43.162301 43.162301 0 0 1 12.196822-4.124054l2.321534 8.570739a24.295452 24.295452 0 0 0-7.665973 2.384658c-6.887452 3.976767-6.78926 9.461479-2.56 16.790794l19.154411 33.132713 16.075398-9.279123 4.671123 8.093808-16.096438 9.244055 9.594739 16.622465-8.311233 4.79737-10.801095-15.928109-9.608768 4.818411-4.355506-7.504658 8.858301-5.112986-19.007123-32.922302c-6.880438-11.923288-7.160986-22.282521 5.51978-29.583781z m23.341589-11.579616l9.924383-5.744219 34.289973 59.384986-9.952438 5.744219z m46.388603 68.734247a7.511671 7.511671 0 0 1 10.618739 2.475835 7.974575 7.974575 0 0 1-13.781917 7.953534 7.511671 7.511671 0 0 1 3.170191-10.436383z m19.638356-27.648l-8.416439 4.124054-4.355506-7.546739 8.093808-4.671124L551.978082 266.169863l9.952439-5.744219 29.611835 51.291178 12.575562-7.259178 4.671123 8.072767-12.575562 7.259178 5.428603 9.40537c4.41863 7.658959 9.489534 10.120767 15.177644 6.838356a19.456 19.456 0 0 0 5.786301-5.379507l6.543781 6.312329a30.067726 30.067726 0 0 1-8.816219 7.715068c-11.811068 6.817315-21.63726 2.433753-28.580822-9.601753z m1.80252-80.222685l10.015562-5.807343 34.282959 59.384987-10.064658 5.807342z m53.837151 81.632438a7.259178 7.259178 0 0 1-10.520548-2.538959 7.476603 7.476603 0 0 1 3.057973-10.366246 7.62389 7.62389 0 0 1 10.723945 2.412712 7.399452 7.399452 0 0 1-3.303452 10.485479z m-23.825534-98.991342l9.819178-5.681096 9.02663 15.640548 18.670466 6.571835 0.848657-38.694575 10.843178-6.263233-2.005917 48.548822 33.665753 12.351123-11.046575 6.375452-43.604165-16.678575-0.217424 0.126247 34.093589 59.055342-9.819178 5.681096z m73.201972-44.186302a36.709699 36.709699 0 0 1 24.604055-2.805479l0.329644-0.18937-3.226301-7.616877 8.199013-4.734246 21.090192 36.527342c8.465534 14.65863 7.960548 27.921534-6.480657 36.260822a51.564712 51.564712 0 0 1-27.886466 5.744219l-0.042082-9.15989a37.775781 37.775781 0 0 0 21.489972-3.948713c9.735014-5.610959 8.016658-14.399123 3.598028-22.051068-26.904548 11.740932-41.892822 11.790027-49.34137-1.115178a18.593315 18.593315 0 0 1 7.665972-26.883507z m7.455562 6.312329a10.520548 10.520548 0 0 0-5.007781 15.577425c4.41863 7.651945 14.027397 8.661918 35.447233-0.483946l-9.59474-16.622465a28.054795 28.054795 0 0 0-20.851726 1.585096z m56.067507-43.015014c14.027397-8.079781 26.266301-4.516822 31.821151 5.105973 6.508712 11.264-0.988932 20.255562-7.715069 28.524712-5.218192 6.368438-10.471452 12.168767-7.189041 17.856877 2.651178 4.593973 8.318247 6.571836 15.752767 2.279452a25.796384 25.796384 0 0 0 10.639781-13.136658l8.542685 3.668165a35.552438 35.552438 0 0 1-14.637589 17.344877c-12.898192 7.448548-24.744329 4.369534-30.158904-5.035836-5.807342-10.057644 1.262466-19.540164 7.806246-27.395507 5.105973-6.312329 10.520548-13.080548 7.055781-19.098301-2.966795-5.141041-9.194959-7.083836-17.071342-2.538959a31.126795 31.126795 0 0 0-13.564494 17.16252l-8.711013-3.71726a41.380822 41.380822 0 0 1 17.422027-20.963945z m36.471233-19.154411l9.952438-5.744219 34.282959 59.384986-9.952438 5.74422z m46.388602 68.734247a7.504658 7.504658 0 0 1 10.611727 2.475836 7.974575 7.974575 0 0 1-13.781918 7.953534 7.511671 7.511671 0 0 1 3.156164-10.352219z"  horiz-adv-x="1031" />

    


  </font>
</defs>
</svg>
